<?xml version="1.0" encoding="UTF-8" standalone="no"?>
<!-- Created with Inkscape (http://www.inkscape.org/) -->

<svg
   xmlns:dc="http://purl.org/dc/elements/1.1/"
   xmlns:cc="http://creativecommons.org/ns#"
   xmlns:rdf="http://www.w3.org/1999/02/22-rdf-syntax-ns#"
   xmlns:svg="http://www.w3.org/2000/svg"
   xmlns="http://www.w3.org/2000/svg"
   xmlns:sodipodi="http://sodipodi.sourceforge.net/DTD/sodipodi-0.dtd"
   xmlns:inkscape="http://www.inkscape.org/namespaces/inkscape"
   width="600mm"
   height="300mm"
   viewBox="0 0 600 300"
   id="svg4136"
   version="1.1"
   inkscape:version="0.91 r13725"
   sodipodi:docname="Design.svg">
  <defs
     id="laser6030" />
  <sodipodi:namedview
     inkscape:document-units="mm"
     id="base"
     pagecolor="#ffffff"
     bordercolor="#666666"
     borderopacity="1.0"
     inkscape:pageopacity="0.0"
     inkscape:pageshadow="2"
     inkscape:zoom="2"
     inkscape:cx="300.8308"
     inkscape:cy="861.51183"
     inkscape:current-layer="layer1"
     showgrid="true"
     inkscape:window-width="1920"
     inkscape:window-height="1027"
     inkscape:window-x="1912"
     inkscape:window-y="-8"
     inkscape:window-maximized="1">
    <inkscape:grid
       type="xygrid"
       id="grid4733"
       units="mm"
       spacingx="1.0000001"
       spacingy="1.0000001" />
  </sodipodi:namedview>
  <metadata
     id="metadata4">
    <rdf:RDF>
      <cc:Work
         rdf:about="">
        <dc:format>image/svg+xml</dc:format>
        <dc:type
           rdf:resource="http://purl.org/dc/dcmitype/StillImage" />
        <dc:title />
      </cc:Work>
    </rdf:RDF>
  </metadata>
  <g
     inkscape:label="Layer 1"
     inkscape:groupmode="layer"
     id="layer1"
     style="display:inline">
    <path
       style="opacity:1;fill:#000000;fill-opacity:0;stroke:#ff0000;stroke-width:0.10000001;stroke-miterlimit:4;stroke-dasharray:none;stroke-opacity:1"
       d="M 65.20265,9.9571705 A 54.947948,54.947948 0 0 0 10.25475,64.905067 54.947948,54.947948 0 0 0 51.76898,118.11444 c -0.0999,0.36915 -0.1582,0.75595 -0.1582,1.15755 l 0,91.11424 c 0,2.43664 1.96151,4.39815 4.39815,4.39815 l 18.38689,0 c 2.43664,0 4.3987,-1.96151 4.3987,-4.39815 l 0,-91.11424 c 0,-0.39483 -0.0565,-0.77524 -0.15324,-1.1388 A 54.947948,54.947948 0 0 0 120.15054,64.905067 54.947948,54.947948 0 0 0 65.20265,9.9571705 Z"
       id="path4682-8-2"
       inkscape:connector-curvature="0" />
    <g
       style="font-style:normal;font-weight:normal;font-size:12.70000076px;line-height:125%;font-family:sans-serif;letter-spacing:0px;word-spacing:0px;fill:#000000;fill-opacity:1;stroke:#0000ff;stroke-width:0.10000001;stroke-linecap:butt;stroke-linejoin:miter;stroke-opacity:1;stroke-miterlimit:4;stroke-dasharray:none"
       id="text3400">
      <path
         d="m 38.7984,64.802365 -0.887457,0 q 0,0.424436 -0.08682,0.848872 -0.07717,0.414789 -0.260449,0.829579 l 1.03215,0.463021 -0.30868,0.646299 -1.032151,-0.46302 q -0.279742,0.453374 -0.6463,0.829579 -0.366558,0.376204 -0.810286,0.665592 l 0.491959,1.176845 -0.771701,0.453374 -0.540191,-1.205783 q -0.627008,0.250803 -1.234722,0.327973 -0.607715,0.07717 -1.176845,-0.01929 l -0.270096,1.389063 -0.858517,-0.23151 0.347265,-1.254015 q -0.424436,-0.09646 -0.819933,-0.221864 -0.38585,-0.135048 -0.733116,-0.289388 l -0.665592,1.099674 -0.694532,-0.540191 0.588423,-1.003212 q -0.434082,-0.299034 -0.810287,-0.684885 -0.376204,-0.38585 -0.713824,-0.868164 L 26.77915,67.358626 26.383653,66.70268 27.531559,66.037087 Q 27.165001,65.303971 26.972076,64.493685 26.77915,63.673752 26.759858,62.757356 l -1.254015,0.202572 -0.221864,-0.858518 1.495171,-0.192925 q 0.06752,-0.810287 0.241157,-1.572342 0.183279,-0.771701 0.482313,-1.504818 l -1.186491,-0.80064 0.540191,-0.752409 1.032151,0.733117 q 0.289388,-0.482314 0.578776,-0.877811 0.289388,-0.405143 0.588423,-0.742762 l -0.868165,-1.176845 0.636654,-0.49196 0.839225,1.051444 q 0.472667,-0.405144 0.954981,-0.713824 0.482313,-0.308681 0.964627,-0.501606 l -0.270096,-1.147906 0.916396,-0.173633 0.144694,1.080382 q 0.30868,-0.06752 0.627007,-0.106109 0.327973,-0.03858 0.655946,-0.03858 0.33762,0 0.655946,0.04823 0.327973,0.04823 0.6463,0.144694 l 0.270096,-1.128614 0.762055,0.192926 -0.376205,1.263661 q 0.385851,0.241156 0.723471,0.588422 0.337619,0.337619 0.617361,0.781348 l 0.858518,-0.588423 0.491959,0.771702 -0.95498,0.559483 q 0.144694,0.33762 0.250803,0.617361 0.106109,0.279742 0.163986,0.49196 L 36.8595,58.291134 q -0.665592,-1.118967 -1.543403,-1.67845 -0.87781,-0.56913 -1.987131,-0.56913 -0.945334,0 -1.745974,0.405143 -0.800641,0.395497 -1.437294,1.205784 -0.598069,0.752409 -0.887457,1.620573 -0.289388,0.868164 -0.289388,1.832791 0,1.070735 0.270096,1.958192 0.270095,0.887457 0.819932,1.581988 0.607715,0.771701 1.418002,1.157552 0.819932,0.376204 1.852083,0.376204 1.389063,0 2.295812,-0.829579 0.906749,-0.829579 0.906749,-2.199349 l 0.868164,-0.347265 q 0.163987,0.289388 0.270095,0.607715 0.106109,0.318326 0.173633,0.684885 l 0.954981,0 0,0.704177 z"
         style="font-style:normal;font-variant:normal;font-weight:normal;font-stretch:normal;font-size:19.75555611px;font-family:Jokerman;-inkscape-font-specification:Jokerman;text-align:center;text-anchor:middle;stroke:#0000ff;stroke-opacity:1;stroke-width:0.10000001;stroke-miterlimit:4;stroke-dasharray:none"
         id="path3409" />
      <path
         d="m 51.12633,65.149631 -1.205783,0.327973 q 0.02894,0.183279 0.04823,0.395497 0.01929,0.202571 0.01929,0.434082 0,0.347266 -0.04823,0.684885 -0.04823,0.337619 -0.144694,0.675239 l 0.964627,0.443728 -0.49196,0.848871 -0.762055,-0.540191 q -0.366558,0.781348 -0.945334,1.321539 -0.578776,0.540191 -1.36977,0.858518 l 0.270096,1.147906 -0.887457,0.221864 -0.173633,-1.128613 q -0.289388,0.04823 -0.511252,0.06752 -0.212218,0.02894 -0.366558,0.02894 -0.578776,0 -1.13826,-0.144694 -0.549837,-0.144694 -1.061089,-0.453374 l -0.713824,1.109321 -0.762055,-0.443729 0.810286,-1.157552 q -0.38585,-0.318327 -0.684885,-0.713824 -0.289388,-0.395497 -0.491959,-0.858518 l -1.205784,0.376205 -0.173633,-0.819933 1.099675,-0.241157 q -0.08682,-0.356911 -0.125402,-0.684885 -0.03859,-0.327973 -0.03859,-0.598068 0,-0.299034 0.02894,-0.578776 0.03859,-0.289388 0.115755,-0.549837 l -1.080382,-0.347266 0.221865,-0.829579 1.10932,0.463021 q 0.231511,-0.588423 0.598069,-1.070736 0.376204,-0.482313 0.87781,-0.848871 l -0.6463,-1.012859 0.742763,-0.511252 0.636654,1.080382 q 0.443728,-0.212218 0.906749,-0.318327 0.472667,-0.106109 0.974273,-0.106109 0.501606,0 0.945334,0.106109 0.453375,0.09646 0.868164,0.289388 l 0.511252,-0.916395 0.752409,0.424436 -0.520898,0.935688 q 0.56913,0.414789 0.974273,0.95498 0.405143,0.540191 0.675239,1.21543 l 1.176844,-0.520899 0.221864,0.98392 z m -3.839214,1.157552 q 0,-0.607715 -0.115755,-1.118967 -0.115756,-0.511252 -0.376205,-0.935688 -0.30868,-0.511252 -0.733116,-0.762055 -0.424436,-0.260449 -0.993566,-0.260449 -0.549837,0 -0.983919,0.260449 -0.434082,0.250803 -0.733116,0.771701 -0.250803,0.424436 -0.376205,0.945334 -0.115755,0.511253 -0.115755,1.099675 0,0.627007 0.115755,1.147906 0.125402,0.511252 0.366558,0.926041 0.299035,0.520899 0.733117,0.771702 0.434082,0.250803 0.993565,0.250803 0.578776,0 1.012858,-0.250803 0.434082,-0.250803 0.72347,-0.771702 0.231511,-0.414789 0.356912,-0.926041 0.125402,-0.520899 0.125402,-1.147906 z"
         style="font-style:normal;font-variant:normal;font-weight:normal;font-stretch:normal;font-size:19.75555611px;font-family:Jokerman;-inkscape-font-specification:Jokerman;text-align:center;text-anchor:middle;stroke:#0000ff;stroke-opacity:1;stroke-width:0.10000001;stroke-miterlimit:4;stroke-dasharray:none"
         id="path3411" />
      <path
         d="m 61.28385,54.509798 -1.06109,2.025716 q -0.318327,-0.144694 -0.549837,-0.221864 -0.221864,-0.07717 -0.356912,-0.07717 -0.588422,0 -1.109321,0.376205 -0.511252,0.366558 -0.964626,1.099674 -0.308681,0.501606 -0.540191,1.13826 -0.221865,0.636654 -0.395497,1.36977 l 2.710601,-0.443728 -0.04823,1.331185 -2.864941,0.30868 q 0,0.05788 -0.02894,0.270096 -0.01929,0.202571 -0.06752,0.578776 l 2.720248,-0.289388 -0.106109,1.254015 -2.710601,0.173632 -0.684885,8.585179 -3.472657,0.491959 0.520899,-2.652723 2.180056,-0.221865 0.212218,-6.106087 -1.736328,0.125401 -0.289388,-0.983919 2.045009,-0.221864 0.04823,-0.858518 -1.668804,0.144694 -0.106109,-0.945334 1.774913,-0.289388 q 0.04823,-1.543403 0.202572,-2.681662 0.15434,-1.13826 0.443728,-1.823145 0.482313,-1.13826 1.360124,-1.707389 0.887456,-0.578776 2.180056,-0.578776 0.598069,0 1.186491,0.212217 0.588422,0.212218 1.176845,0.617362 z"
         style="font-style:normal;font-variant:normal;font-weight:normal;font-stretch:normal;font-size:19.75555611px;font-family:Jokerman;-inkscape-font-specification:Jokerman;text-align:center;text-anchor:middle;stroke:#0000ff;stroke-opacity:1;stroke-width:0.10000001;stroke-miterlimit:4;stroke-dasharray:none"
         id="path3413" />
      <path
         d="m 68.113405,54.509798 -1.061089,2.025716 q -0.318327,-0.144694 -0.549838,-0.221864 -0.221864,-0.07717 -0.356911,-0.07717 -0.588423,0 -1.109321,0.376205 -0.511252,0.366558 -0.964627,1.099674 -0.308681,0.501606 -0.540191,1.13826 -0.221864,0.636654 -0.395497,1.36977 l 2.710601,-0.443728 -0.04823,1.331185 -2.864942,0.30868 q 0,0.05788 -0.02894,0.270096 -0.01929,0.202571 -0.06752,0.578776 l 2.720247,-0.289388 -0.106109,1.254015 -2.710601,0.173632 -0.684885,8.585179 -3.472656,0.491959 0.520898,-2.652723 2.180057,-0.221865 0.212218,-6.106087 -1.736329,0.125401 -0.289388,-0.983919 2.045009,-0.221864 0.04823,-0.858518 -1.668804,0.144694 -0.106109,-0.945334 1.774913,-0.289388 q 0.04823,-1.543403 0.202572,-2.681662 0.15434,-1.13826 0.443728,-1.823145 0.482314,-1.13826 1.360124,-1.707389 0.887457,-0.578776 2.180057,-0.578776 0.598068,0 1.186491,0.212217 0.588422,0.212218 1.176844,0.617362 z"
         style="font-style:normal;font-variant:normal;font-weight:normal;font-stretch:normal;font-size:19.75555611px;font-family:Jokerman;-inkscape-font-specification:Jokerman;text-align:center;text-anchor:middle;stroke:#0000ff;stroke-opacity:1;stroke-width:0.10000001;stroke-miterlimit:4;stroke-dasharray:none"
         id="path3415" />
      <path
         d="m 76.592476,69.586914 q -0.241156,0.241157 -0.434082,0.434082 -0.192925,0.183279 -0.337619,0.299034 l 0.72347,1.080382 -0.675239,0.395497 -0.733116,-0.906749 q -0.385851,0.23151 -0.819933,0.385851 -0.434082,0.163986 -0.926042,0.221864 l -0.01929,1.138259 -0.868164,-0.05788 0.07717,-1.051443 q -0.443728,0 -0.945334,-0.09646 -0.501606,-0.08682 -1.051443,-0.270096 l -0.540191,1.157553 -0.868165,-0.472668 0.588423,-1.080381 Q 69.290252,70.503309 68.894755,70.16569 68.508904,69.818424 68.20987,69.384342 l -1.032151,0.655946 -0.434082,-0.684885 1.128613,-0.588422 q -0.221864,-0.463021 -0.347265,-0.945334 -0.125402,-0.49196 -0.163987,-1.003212 l -1.03215,0.260449 -0.299035,-0.848871 1.331185,-0.299035 q 0.04823,-0.540191 0.163987,-0.974273 0.115755,-0.434082 0.299034,-0.771701 l -0.935688,-0.559484 0.443728,-0.733116 0.916396,0.636654 q 0.241156,-0.299034 0.520898,-0.540191 0.289388,-0.241157 0.607715,-0.424436 l -0.790994,-1.147906 0.868164,-0.424436 0.636654,1.225076 q 0.30868,-0.09646 0.559483,-0.15434 0.250803,-0.05788 0.443729,-0.08682 l 0.260449,-1.263661 0.684885,0.212218 -0.173633,1.003211 q 0.385851,0 0.733116,0.09646 0.347266,0.09646 0.665593,0.289388 l 0.95498,-0.945334 0.540191,0.453374 -0.906749,0.98392 q 0.212218,0.202571 0.395497,0.491959 0.183279,0.279742 0.327973,0.627008 l 1.128614,-0.376205 0.192925,0.713824 -1.090028,0.376205 q 0.07717,0.212217 0.125401,0.46302 0.05788,0.250803 0.106109,0.540191 l -4.485514,0.781348 0,0.106109 q 0,0.704178 0.144694,1.331185 0.15434,0.617361 0.463021,1.176845 0.366558,0.665592 0.87781,1.003211 0.511252,0.327974 1.147906,0.327974 0.655946,0 1.379416,-0.347266 0.72347,-0.347266 1.533757,-1.06109 l 0.491959,0.627008 z m -3.945323,-4.736318 q -0.03858,-0.424435 -0.318327,-0.636653 -0.270096,-0.212218 -0.781348,-0.212218 -0.627007,0 -1.167198,0.376204 -0.540191,0.376205 -0.733116,0.964627 l 2.999989,-0.49196 z"
         style="font-style:normal;font-variant:normal;font-weight:normal;font-stretch:normal;font-size:19.75555611px;font-family:Jokerman;-inkscape-font-specification:Jokerman;text-align:center;text-anchor:middle;stroke:#0000ff;stroke-opacity:1;stroke-width:0.10000001;stroke-miterlimit:4;stroke-dasharray:none"
         id="path3417" />
      <path
         d="m 88.399506,69.586914 q -0.241157,0.241157 -0.434082,0.434082 -0.192925,0.183279 -0.337619,0.299034 l 0.72347,1.080382 -0.675239,0.395497 -0.733116,-0.906749 q -0.385851,0.23151 -0.819933,0.385851 -0.434082,0.163986 -0.926042,0.221864 l -0.01929,1.138259 -0.868164,-0.05788 0.07717,-1.051443 q -0.443729,0 -0.945335,-0.09646 -0.501605,-0.08682 -1.051443,-0.270096 l -0.540191,1.157553 -0.868164,-0.472668 0.588423,-1.080381 q -0.472668,-0.26045 -0.868165,-0.598069 -0.38585,-0.347266 -0.684885,-0.781348 l -1.03215,0.655946 -0.434082,-0.684885 1.128613,-0.588422 q -0.221864,-0.463021 -0.347266,-0.945334 -0.125401,-0.49196 -0.163986,-1.003212 l -1.032151,0.260449 -0.299034,-0.848871 1.331185,-0.299035 q 0.04823,-0.540191 0.163986,-0.974273 0.115756,-0.434082 0.299035,-0.771701 l -0.935688,-0.559484 0.443728,-0.733116 0.916395,0.636654 q 0.241157,-0.299034 0.520899,-0.540191 0.289388,-0.241157 0.607715,-0.424436 l -0.790994,-1.147906 0.868164,-0.424436 0.636654,1.225076 q 0.30868,-0.09646 0.559483,-0.15434 0.250803,-0.05788 0.443728,-0.08682 l 0.26045,-1.263661 0.684885,0.212218 -0.173633,1.003211 q 0.385851,0 0.733116,0.09646 0.347266,0.09646 0.665593,0.289388 l 0.95498,-0.945334 0.540191,0.453374 -0.906749,0.98392 q 0.212218,0.202571 0.395497,0.491959 0.183279,0.279742 0.327973,0.627008 l 1.128613,-0.376205 0.192926,0.713824 -1.090029,0.376205 q 0.07717,0.212217 0.125402,0.46302 0.05788,0.250803 0.106109,0.540191 l -4.485515,0.781348 0,0.106109 q 0,0.704178 0.144694,1.331185 0.154341,0.617361 0.463021,1.176845 0.366558,0.665592 0.877811,1.003211 0.511252,0.327974 1.147906,0.327974 0.655946,0 1.379416,-0.347266 0.72347,-0.347266 1.533756,-1.06109 l 0.49196,0.627008 z m -3.945323,-4.736318 q -0.03859,-0.424435 -0.318327,-0.636653 -0.270096,-0.212218 -0.781348,-0.212218 -0.627007,0 -1.167198,0.376204 -0.540191,0.376205 -0.733117,0.964627 l 2.99999,-0.49196 z"
         style="font-style:normal;font-variant:normal;font-weight:normal;font-stretch:normal;font-size:19.75555611px;font-family:Jokerman;-inkscape-font-specification:Jokerman;text-align:center;text-anchor:middle;stroke:#0000ff;stroke-opacity:1;stroke-width:0.10000001;stroke-miterlimit:4;stroke-dasharray:none"
         id="path3419" />
      <path
         d="m 105.33836,58.156087 -1.10932,-0.02894 q 0,0.559483 -0.16399,1.061089 -0.15434,0.49196 -0.49196,0.935688 l 1.12861,0.665593 -0.61736,0.819933 -0.95498,-0.916396 q -0.23151,0.250803 -0.61736,0.49196 -0.3762,0.241156 -0.88746,0.472667 l 0.83923,1.176845 -0.98392,0.569129 -0.62701,-1.427647 q -0.20257,0.07717 -0.39549,0.125401 -0.18328,0.04823 -0.35692,0.06752 l -0.308677,3.501595 -1.437294,0.318327 -0.868164,-4.061079 q 0.935688,-0.06752 1.70739,-0.337619 0.781347,-0.270095 1.408355,-0.704178 0.74276,-0.520898 1.10932,-1.215429 0.37621,-0.694532 0.37621,-1.562696 0,-0.617361 -0.16399,-1.118967 -0.15434,-0.501606 -0.49196,-0.887456 -0.34727,-0.395497 -0.82958,-0.588423 -0.48231,-0.202571 -1.099675,-0.202571 -0.395497,0 -0.742762,0.106109 -0.347266,0.09646 -0.6463,0.279741 -0.347266,0.212218 -0.520899,0.511253 -0.173632,0.299034 -0.173632,0.675238 0,0.549838 0.270095,0.829579 0.270096,0.279742 0.810286,0.279742 0.318327,0 0.598069,-0.144694 0.279742,-0.144694 0.501606,-0.453374 l 0.472672,0.376204 q -0.183284,0.289388 -0.434087,0.530545 -0.241157,0.23151 -0.549837,0.395497 l 0.443728,0.916395 -0.983919,0.347266 -0.279742,-0.964627 q -0.09646,0.03859 -0.221864,0.04823 -0.125402,0.0096 -0.279742,0.0096 -0.530545,0 -0.926042,-0.173633 -0.38585,-0.183279 -0.636653,-0.540191 l -1.032151,0.559483 -0.270095,-0.983919 1.03215,-0.327973 q -0.01929,-0.07717 -0.03858,-0.163987 -0.0096,-0.09646 -0.0096,-0.202571 0,-0.443729 0.192925,-0.868164 0.192926,-0.424436 0.56913,-0.800641 l -0.858518,-0.733116 0.684885,-0.897103 0.848872,1.080382 q 0.463021,-0.270095 0.993565,-0.443728 0.530545,-0.173633 1.118967,-0.260449 l -0.07717,-1.109321 0.906749,-0.106109 0,1.186491 q 0.58842,0.02894 1.09967,0.173633 0.51126,0.135047 0.94534,0.395497 l 0.7717,-0.98392 0.68489,0.607715 -0.86817,0.771702 q 0.50161,0.46302 0.81993,0.993565 0.31833,0.520899 0.44373,1.118967 l 1.09968,-0.318327 0.0772,1.128614 z m -4.53375,10.707357 q 0,0.733116 -0.5209,1.273307 -0.511249,0.530545 -1.244366,0.530545 -0.72347,0 -1.244368,-0.530545 -0.511252,-0.540191 -0.511252,-1.273307 0,-0.72347 0.511252,-1.244369 0.520898,-0.520898 1.244368,-0.520898 0.723471,0 1.244366,0.520898 0.5209,0.520899 0.5209,1.244369 z m -1.128612,0.250803 q 0,-0.347266 -0.23151,-0.617361 -0.221864,-0.270096 -0.549838,-0.270096 -0.395497,0 -0.598068,0.221864 -0.192925,0.221864 -0.192925,0.665593 0,0.337619 0.221864,0.607715 0.23151,0.270095 0.569129,0.270095 0.327974,0 0.549838,-0.270095 0.23151,-0.279742 0.23151,-0.607715 z"
         style="font-style:normal;font-variant:normal;font-weight:normal;font-stretch:normal;font-size:19.75555611px;font-family:Jokerman;-inkscape-font-specification:Jokerman;text-align:center;text-anchor:middle;stroke:#0000ff;stroke-opacity:1;stroke-width:0.10000001;stroke-miterlimit:4;stroke-dasharray:none"
         id="path3421" />
    </g>
  </g>
</svg>
